<svg width="32" height="32" viewBox="0 0 32 32" fill="none" xmlns="http://www.w3.org/2000/svg">
<path d="M14 11.6801V16.1301L17.96 13.6601L14 11.6801Z" fill="#304046"/>
<path d="M27 4H5C4.20435 4 3.44129 4.31607 2.87868 4.87868C2.31607 5.44129 2 6.20435 2 7V25C2 25.7956 2.31607 26.5587 2.87868 27.1213C3.44129 27.6839 4.20435 28 5 28H27C27.7956 28 28.5587 27.6839 29.1213 27.1213C29.6839 26.5587 30 25.7956 30 25V7C30 6.20435 29.6839 5.44129 29.1213 4.87868C28.5587 4.31607 27.7956 4 27 4ZM12 10.06C12.0005 9.88954 12.0446 9.72203 12.1281 9.5734C12.2115 9.42477 12.3316 9.29994 12.4769 9.21076C12.6222 9.12159 12.7878 9.07104 12.9581 9.0639C13.1285 9.05677 13.2978 9.09329 13.45 9.17L20.45 12.67C20.6076 12.7491 20.7415 12.8684 20.8381 13.016C20.9347 13.1635 20.9905 13.3339 21 13.51C21.0091 13.6883 20.9704 13.8658 20.8877 14.0241C20.8051 14.1824 20.6816 14.3156 20.53 14.41L13.53 18.79C13.3709 18.8886 13.1872 18.9406 13 18.94C12.831 18.9421 12.6648 18.8971 12.52 18.81C12.3637 18.7245 12.233 18.5987 12.1416 18.4458C12.0502 18.2928 12.0013 18.1182 12 17.94V10.06ZM25 24H20C20 24.2652 19.8946 24.5196 19.7071 24.7071C19.5196 24.8946 19.2652 25 19 25C18.7348 25 18.4804 24.8946 18.2929 24.7071C18.1054 24.5196 18 24.2652 18 24H7C6.73478 24 6.48043 23.8946 6.29289 23.7071C6.10536 23.5196 6 23.2652 6 23C6 22.7348 6.10536 22.4804 6.29289 22.2929C6.48043 22.1054 6.73478 22 7 22H18C18 21.7348 18.1054 21.4804 18.2929 21.2929C18.4804 21.1054 18.7348 21 19 21C19.2652 21 19.5196 21.1054 19.7071 21.2929C19.8946 21.4804 20 21.7348 20 22H25C25.2652 22 25.5196 22.1054 25.7071 22.2929C25.8946 22.4804 26 22.7348 26 23C26 23.2652 25.8946 23.5196 25.7071 23.7071C25.5196 23.8946 25.2652 24 25 24Z" fill="#304046"/>
</svg>
